<svg xmlns="http://www.w3.org/2000/svg" width="1280" height="720" viewBox="0 0 1280 720" role="img">
  <metadata id="uvip-qsom-visual-payload" data-encoding="json">{&quot;frames&quot;:[{&quot;created_at&quot;:&quot;2026-05-29T06:28:59.373690+00:00&quot;,&quot;data&quot;:&quot;eyJjcmVhdGVkX2F0IjoiMjAyNi0wNS0yOVQwNjoyODo1OS4zNzMxMTMrMDA6MDAiLCJldmlkZW5jZV9ib3VuZGFyeSI6IlZpc3VhbCBNQ1AgZW52ZWxvcGUgb25seTsgZG9lcyBub3QgYXV0aG9yaXplIHRvb2wgZXhlY3V0aW9uIGJ5IGl0c2VsZi4iLCJtZXNzYWdlX2lkIjoibXNnLWIxOTJjM2Y1ZTFkOWU4ODYiLCJtZXRob2QiOiJ0b29scy9saXN0Iiwibm9uY2UiOiIwZTJlNjE1MmUzNDQ1NTUyMTJjMjg0ZTQ2NGE3YjkzNSIsInBhcmFtcyI6eyJyZXF1ZXN0ZWRfY2FwYWJpbGl0eSI6Im1jcF9tZXNzYWdlX2V4Y2hhbmdlIiwic2FmZXR5Ijoibm8gc2Vj&quot;,&quot;encoding&quot;:&quot;base64url-canonical-json&quot;,&quot;frame_count&quot;:3,&quot;frame_hash&quot;:&quot;ee5aace7b99b2be9a830d6d78bc14a1478759655f878baf3195cbb3a826eb502&quot;,&quot;frame_index&quot;:0,&quot;parent_payload_hash&quot;:&quot;e87ee14c3dd3a59510b785a2c8983e48e274b372ca32a8a02a35798c119ae245&quot;,&quot;protocol&quot;:&quot;UVIP-QSOM-VISUAL&quot;,&quot;schema&quot;:&quot;uvip_qsom_visual_frame.v1&quot;,&quot;symbol_mode&quot;:&quot;wave-bar-sphere&quot;},{&quot;created_at&quot;:&quot;2026-05-29T06:28:59.373738+00:00&quot;,&quot;data&quot;:&quot;cmV0czsgcmVjZWl2ZXIgbXVzdCBhdXRob3JpemUgZGVjb2RlZCBtZXRob2RzIiwidHJhbnNwb3J0IjoidmlzdWFsLW9ubHkifSwicGF5bG9hZF9oYXNoIjoiZTg3ZWUxNGMzZGQzYTU5NTEwYjc4NWEyYzg5ODNlNDhlMjc0YjM3MmNhMzJhOGEwMmEzNTc5OGMxMTlhZTI0NSIsInByb3RvY29sIjoiVVZJUC1RU09NLU1DUCIsInByb3RvY29sX3ZlcnNpb24iOiIwLjEuMCIsInJlY2VpdmVyX2lkIjoibWNwLnNlcnZlci52aXN1YWwucmVjZWl2ZXIiLCJyZXBseV9jaGFubmVsX2hpbnQiOiJ2aXN1YWwtcmV0dXJuLWZyYW1lIiwic2NoZW1hIjoidXZpcF9xc29t&quot;,&quot;encoding&quot;:&quot;base64url-canonical-json&quot;,&quot;frame_count&quot;:3,&quot;frame_hash&quot;:&quot;ad66df64cbc340c0f27cb19449d38a00c04d901a9eff1f5212713c537366c39e&quot;,&quot;frame_index&quot;:1,&quot;parent_payload_hash&quot;:&quot;e87ee14c3dd3a59510b785a2c8983e48e274b372ca32a8a02a35798c119ae245&quot;,&quot;protocol&quot;:&quot;UVIP-QSOM-VISUAL&quot;,&quot;schema&quot;:&quot;uvip_qsom_visual_frame.v1&quot;,&quot;symbol_mode&quot;:&quot;wave-bar-sphere&quot;},{&quot;created_at&quot;:&quot;2026-05-29T06:28:59.373772+00:00&quot;,&quot;data&quot;:&quot;X21jcF9lbnZlbG9wZS52MSIsInNlbmRlcl9pZCI6InV2aXAtcXNvbS5zZW5kZXIubG9jYWwiLCJzZXNzaW9uX2lkIjoic2Vzc2lvbi1iNmY3ZDAxMmY0NzczNzJlIiwidHJhbnNwb3J0X2JvdW5kYXJ5IjoiVmlzdWFsLW9ubHkgdHJhbnNtaXNzaW9uIHNob3VsZCBiZSB0cmVhdGVkIGFzIHVudHJ1c3RlZCBpbnB1dCB1bnRpbCBkZWNvZGVkLCBoYXNoLWNoZWNrZWQsIGFuZCBwb2xpY3ktYXV0aG9yaXplZC4ifQ&quot;,&quot;encoding&quot;:&quot;base64url-canonical-json&quot;,&quot;frame_count&quot;:3,&quot;frame_hash&quot;:&quot;fd826e2ae04d693f37ef98330577186774ef01b3f67328dbdc0b8bd1abb38e33&quot;,&quot;frame_index&quot;:2,&quot;parent_payload_hash&quot;:&quot;e87ee14c3dd3a59510b785a2c8983e48e274b372ca32a8a02a35798c119ae245&quot;,&quot;protocol&quot;:&quot;UVIP-QSOM-VISUAL&quot;,&quot;schema&quot;:&quot;uvip_qsom_visual_frame.v1&quot;,&quot;symbol_mode&quot;:&quot;wave-bar-sphere&quot;}],&quot;payload&quot;:{&quot;created_at&quot;:&quot;2026-05-29T06:28:59.373113+00:00&quot;,&quot;evidence_boundary&quot;:&quot;Visual MCP envelope only; does not authorize tool execution by itself.&quot;,&quot;message_id&quot;:&quot;msg-b192c3f5e1d9e886&quot;,&quot;method&quot;:&quot;tools/list&quot;,&quot;nonce&quot;:&quot;0e2e6152e344555212c284e464a7b935&quot;,&quot;params&quot;:{&quot;requested_capability&quot;:&quot;mcp_message_exchange&quot;,&quot;safety&quot;:&quot;no secrets; receiver must authorize decoded methods&quot;,&quot;transport&quot;:&quot;visual-only&quot;},&quot;payload_hash&quot;:&quot;e87ee14c3dd3a59510b785a2c8983e48e274b372ca32a8a02a35798c119ae245&quot;,&quot;protocol&quot;:&quot;UVIP-QSOM-MCP&quot;,&quot;protocol_version&quot;:&quot;0.1.0&quot;,&quot;receiver_id&quot;:&quot;mcp.server.visual.receiver&quot;,&quot;reply_channel_hint&quot;:&quot;visual-return-frame&quot;,&quot;schema&quot;:&quot;uvip_qsom_mcp_envelope.v1&quot;,&quot;sender_id&quot;:&quot;uvip-qsom.sender.local&quot;,&quot;session_id&quot;:&quot;session-b6f7d012f477372e&quot;,&quot;transport_boundary&quot;:&quot;Visual-only transmission should be treated as untrusted input until decoded, hash-checked, and policy-authorized.&quot;},&quot;scanner_boundary&quot;:&quot;Decode SVG metadata or frame sidecars first; camera image decoding is not implemented in v0.1.&quot;}</metadata>
  <rect width="100%" height="100%" fill="#06121f"/>
  <g><line x1="187.83" y1="343.06" x2="807.06" y2="480.85" stroke="#64748b" stroke-width="1.2" opacity=".22"/><line x1="201.19" y1="404.05" x2="339.29" y2="266.26" stroke="#64748b" stroke-width="1.2" opacity=".22"/><line x1="174.46" y1="376.94" x2="1132.27" y2="352.09" stroke="#64748b" stroke-width="1.2" opacity=".22"/><line x1="994.16" y1="611.86" x2="103.18" y2="318.21" stroke="#64748b" stroke-width="1.2" opacity=".22"/><line x1="602.13" y1="618.64" x2="856.06" y2="532.80" stroke="#64748b" stroke-width="1.2" opacity=".22"/><line x1="352.66" y1="132.99" x2="642.23" y2="76.52" stroke="#64748b" stroke-width="1.2" opacity=".22"/><line x1="1003.07" y1="284.33" x2="713.51" y2="354.35" stroke="#64748b" stroke-width="1.2" opacity=".22"/><line x1="611.04" y1="144.28" x2="704.60" y2="320.47" stroke="#64748b" stroke-width="1.2" opacity=".22"/><line x1="481.85" y1="419.86" x2="459.58" y2="257.22" stroke="#64748b" stroke-width="1.2" opacity=".22"/><line x1="1065.44" y1="218.82" x2="588.77" y2="112.66" stroke="#64748b" stroke-width="1.2" opacity=".22"/><line x1="869.43" y1="354.35" x2="423.94" y2="105.88" stroke="#64748b" stroke-width="1.2" opacity=".22"/><line x1="994.16" y1="214.31" x2="156.64" y2="130.73" stroke="#64748b" stroke-width="1.2" opacity=".22"/><line x1="245.74" y1="388.24" x2="1074.35" y2="568.94" stroke="#64748b" stroke-width="1.2" opacity=".22"/><line x1="513.04" y1="415.34" x2="624.41" y2="78.78" stroke="#64748b" stroke-width="1.2" opacity=".22"/><line x1="219.01" y1="451.48" x2="905.07" y2="288.85" stroke="#64748b" stroke-width="1.2" opacity=".22"/><line x1="183.37" y1="178.16" x2="584.31" y2="446.96" stroke="#64748b" stroke-width="1.2" opacity=".22"/><line x1="1114.45" y1="187.20" x2="1208.00" y2="193.98" stroke="#64748b" stroke-width="1.2" opacity=".22"/><line x1="1167.91" y1="304.66" x2="1074.35" y2="365.65" stroke="#64748b" stroke-width="1.2" opacity=".22"/><line x1="112.09" y1="157.84" x2="740.24" y2="318.21" stroke="#64748b" stroke-width="1.2" opacity=".22"/><line x1="526.40" y1="605.08" x2="1096.63" y2="568.94" stroke="#64748b" stroke-width="1.2" opacity=".22"/><line x1="887.25" y1="591.53" x2="878.34" y2="564.42" stroke="#64748b" stroke-width="1.2" opacity=".22"/><line x1="107.64" y1="324.99" x2="441.76" y2="609.60" stroke="#64748b" stroke-width="1.2" opacity=".22"/><line x1="824.88" y1="627.67" x2="602.13" y2="559.91" stroke="#64748b" stroke-width="1.2" opacity=".22"/><line x1="161.10" y1="557.65" x2="1159.00" y2="593.79" stroke="#64748b" stroke-width="1.2" opacity=".22"/></g>
  <g><g opacity="0.79"><circle cx="187.83" cy="343.06" r="15.00" fill="hsl(255 69% 49%)"/><circle cx="183.03" cy="337.81" r="5.10" fill="#ffffff" opacity=".38"/><circle cx="190.53" cy="346.36" r="7.80" fill="hsl(160 58% 41%)" opacity=".24"/></g><g opacity="0.76"><circle cx="508.58" cy="582.49" r="60.00" fill="hsl(29 59% 48%)"/><circle cx="489.38" cy="561.49" r="20.40" fill="#ffffff" opacity=".38"/><circle cx="519.38" cy="595.69" r="31.20" fill="hsl(117 72% 60%)" opacity=".24"/></g><g opacity="0.53"><circle cx="201.19" cy="404.05" r="18.00" fill="hsl(135 82% 54%)"/><circle cx="195.43" cy="397.75" r="6.12" fill="#ffffff" opacity=".38"/><circle cx="204.43" cy="408.01" r="9.36" fill="hsl(9 58% 60%)" opacity=".24"/></g><g opacity="0.58"><circle cx="896.16" cy="130.73" r="57.00" fill="hsl(173 77% 48%)"/><circle cx="877.92" cy="110.78" r="19.38" fill="#ffffff" opacity=".38"/><circle cx="906.42" cy="143.27" r="29.64" fill="hsl(140 56% 37%)" opacity=".24"/></g><g opacity="0.73"><circle cx="174.46" cy="376.94" r="34.00" fill="hsl(203 73% 40%)"/><circle cx="163.58" cy="365.04" r="11.56" fill="#ffffff" opacity=".38"/><circle cx="180.58" cy="384.42" r="17.68" fill="hsl(304 79% 36%)" opacity=".24"/></g><g opacity="0.48"><circle cx="1096.63" cy="139.76" r="64.00" fill="hsl(108 78% 56%)"/><circle cx="1076.15" cy="117.36" r="21.76" fill="#ffffff" opacity=".38"/><circle cx="1108.15" cy="153.84" r="33.28" fill="hsl(188 82% 42%)" opacity=".24"/></g><g opacity="0.78"><circle cx="994.16" cy="611.86" r="19.00" fill="hsl(195 61% 52%)"/><circle cx="988.08" cy="605.21" r="6.46" fill="#ffffff" opacity=".38"/><circle cx="997.58" cy="616.04" r="9.88" fill="hsl(328 76% 63%)" opacity=".24"/></g><g opacity="0.79"><circle cx="508.58" cy="257.22" r="65.00" fill="hsl(320 73% 37%)"/><circle cx="487.78" cy="234.47" r="22.10" fill="#ffffff" opacity=".38"/><circle cx="520.28" cy="271.52" r="33.80" fill="hsl(10 56% 49%)" opacity=".24"/></g><g opacity="0.75"><circle cx="602.13" cy="618.64" r="26.00" fill="hsl(344 69% 54%)"/><circle cx="593.81" cy="609.54" r="8.84" fill="#ffffff" opacity=".38"/><circle cx="606.81" cy="624.36" r="13.52" fill="hsl(140 56% 50%)" opacity=".24"/></g><g opacity="0.53"><circle cx="1065.44" cy="510.21" r="49.00" fill="hsl(274 58% 57%)"/><circle cx="1049.76" cy="493.06" r="16.66" fill="#ffffff" opacity=".38"/><circle cx="1074.26" cy="520.99" r="25.48" fill="hsl(273 84% 58%)" opacity=".24"/></g><g opacity="0.58"><circle cx="352.66" cy="132.99" r="32.00" fill="hsl(72 59% 59%)"/><circle cx="342.42" cy="121.79" r="10.88" fill="#ffffff" opacity=".38"/><circle cx="358.42" cy="140.03" r="16.64" fill="hsl(196 67% 49%)" opacity=".24"/></g><g opacity="0.85"><circle cx="276.93" cy="275.29" r="61.00" fill="hsl(343 70% 59%)"/><circle cx="257.41" cy="253.94" r="20.74" fill="#ffffff" opacity=".38"/><circle cx="287.91" cy="288.71" r="31.72" fill="hsl(163 68% 37%)" opacity=".24"/></g><g opacity="0.53"><circle cx="1003.07" cy="284.33" r="48.00" fill="hsl(260 85% 48%)"/><circle cx="987.71" cy="267.53" r="16.32" fill="#ffffff" opacity=".38"/><circle cx="1011.71" cy="294.89" r="24.96" fill="hsl(48 84% 60%)" opacity=".24"/></g><g opacity="0.79"><circle cx="192.28" cy="259.48" r="53.00" fill="hsl(219 76% 60%)"/><circle cx="175.32" cy="240.93" r="18.02" fill="#ffffff" opacity=".38"/><circle cx="201.82" cy="271.14" r="27.56" fill="hsl(212 79% 40%)" opacity=".24"/></g><g opacity="0.84"><circle cx="611.04" cy="144.28" r="46.00" fill="hsl(253 73% 63%)"/><circle cx="596.32" cy="128.18" r="15.64" fill="#ffffff" opacity=".38"/><circle cx="619.32" cy="154.40" r="23.92" fill="hsl(34 65% 37%)" opacity=".24"/></g><g opacity="0.72"><circle cx="980.80" cy="370.16" r="57.00" fill="hsl(134 56% 53%)"/><circle cx="962.56" cy="350.21" r="19.38" fill="#ffffff" opacity=".38"/><circle cx="991.06" cy="382.70" r="29.64" fill="hsl(116 68% 38%)" opacity=".24"/></g><g opacity="0.71"><circle cx="481.85" cy="419.86" r="45.00" fill="hsl(227 81% 37%)"/><circle cx="467.45" cy="404.11" r="15.30" fill="#ffffff" opacity=".38"/><circle cx="489.95" cy="429.76" r="23.40" fill="hsl(259 56% 39%)" opacity=".24"/></g><g opacity="0.72"><circle cx="481.85" cy="358.87" r="33.00" fill="hsl(157 75% 51%)"/><circle cx="471.29" cy="347.32" r="11.22" fill="#ffffff" opacity=".38"/><circle cx="487.79" cy="366.13" r="17.16" fill="hsl(301 80% 48%)" opacity=".24"/></g><g opacity="0.83"><circle cx="1065.44" cy="218.82" r="20.00" fill="hsl(151 68% 62%)"/><circle cx="1059.04" cy="211.82" r="6.80" fill="#ffffff" opacity=".38"/><circle cx="1069.04" cy="223.22" r="10.40" fill="hsl(294 68% 36%)" opacity=".24"/></g><g opacity="0.84"><circle cx="401.66" cy="573.46" r="28.00" fill="hsl(133 65% 53%)"/><circle cx="392.70" cy="563.66" r="9.52" fill="#ffffff" opacity=".38"/><circle cx="406.70" cy="579.62" r="14.56" fill="hsl(37 65% 62%)" opacity=".24"/></g><g opacity="0.67"><circle cx="869.43" cy="354.35" r="37.00" fill="hsl(161 82% 40%)"/><circle cx="857.59" cy="341.40" r="12.58" fill="#ffffff" opacity=".38"/><circle cx="876.09" cy="362.49" r="19.24" fill="hsl(213 77% 52%)" opacity=".24"/></g><g opacity="0.81"><circle cx="954.07" cy="385.98" r="38.00" fill="hsl(142 66% 58%)"/><circle cx="941.91" cy="372.68" r="12.92" fill="#ffffff" opacity=".38"/><circle cx="960.91" cy="394.34" r="19.76" fill="hsl(41 89% 51%)" opacity=".24"/></g><g opacity="0.73"><circle cx="994.16" cy="214.31" r="31.00" fill="hsl(190 77% 52%)"/><circle cx="984.24" cy="203.46" r="10.54" fill="#ffffff" opacity=".38"/><circle cx="999.74" cy="221.13" r="16.12" fill="hsl(276 63% 40%)" opacity=".24"/></g><g opacity="0.76"><circle cx="343.75" cy="78.78" r="28.00" fill="hsl(197 68% 44%)"/><circle cx="334.79" cy="68.98" r="9.52" fill="#ffffff" opacity=".38"/><circle cx="348.79" cy="84.94" r="14.56" fill="hsl(21 82% 57%)" opacity=".24"/></g><g opacity="0.51"><circle cx="245.74" cy="388.24" r="21.00" fill="hsl(118 56% 52%)"/><circle cx="239.02" cy="380.89" r="7.14" fill="#ffffff" opacity=".38"/><circle cx="249.52" cy="392.86" r="10.92" fill="hsl(67 71% 44%)" opacity=".24"/></g><g opacity="0.54"><circle cx="624.41" cy="385.98" r="29.00" fill="hsl(359 72% 38%)"/><circle cx="615.13" cy="375.83" r="9.86" fill="#ffffff" opacity=".38"/><circle cx="629.63" cy="392.36" r="15.08" fill="hsl(99 84% 46%)" opacity=".24"/></g><g opacity="0.87"><circle cx="513.04" cy="415.34" r="28.00" fill="hsl(186 84% 59%)"/><circle cx="504.08" cy="405.54" r="9.52" fill="#ffffff" opacity=".38"/><circle cx="518.08" cy="421.50" r="14.56" fill="hsl(130 67% 60%)" opacity=".24"/></g><g opacity="0.77"><circle cx="780.33" cy="254.96" r="19.00" fill="hsl(300 92% 36%)"/><circle cx="774.25" cy="248.31" r="6.46" fill="#ffffff" opacity=".38"/><circle cx="783.75" cy="259.14" r="9.88" fill="hsl(325 58% 40%)" opacity=".24"/></g><g opacity="0.85"><circle cx="219.01" cy="451.48" r="37.00" fill="hsl(331 83% 54%)"/><circle cx="207.17" cy="438.53" r="12.58" fill="#ffffff" opacity=".38"/><circle cx="225.67" cy="459.62" r="19.24" fill="hsl(122 78% 62%)" opacity=".24"/></g><g opacity="0.79"><circle cx="766.96" cy="209.79" r="16.00" fill="hsl(358 63% 51%)"/><circle cx="761.84" cy="204.19" r="5.44" fill="#ffffff" opacity=".38"/><circle cx="769.84" cy="213.31" r="8.32" fill="hsl(61 73% 55%)" opacity=".24"/></g><g opacity="0.49"><circle cx="183.37" cy="178.16" r="19.00" fill="hsl(84 66% 50%)"/><circle cx="177.29" cy="171.51" r="6.46" fill="#ffffff" opacity=".38"/><circle cx="186.79" cy="182.34" r="9.88" fill="hsl(181 80% 44%)" opacity=".24"/></g><g opacity="0.85"><circle cx="615.50" cy="241.41" r="29.00" fill="hsl(181 88% 44%)"/><circle cx="606.22" cy="231.26" r="9.86" fill="#ffffff" opacity=".38"/><circle cx="620.72" cy="247.79" r="15.08" fill="hsl(240 77% 51%)" opacity=".24"/></g><g opacity="0.53"><circle cx="1114.45" cy="187.20" r="51.00" fill="hsl(300 78% 54%)"/><circle cx="1098.13" cy="169.35" r="17.34" fill="#ffffff" opacity=".38"/><circle cx="1123.63" cy="198.42" r="26.52" fill="hsl(287 86% 51%)" opacity=".24"/></g><g opacity="0.60"><circle cx="1203.55" cy="273.04" r="28.00" fill="hsl(102 65% 51%)"/><circle cx="1194.59" cy="263.24" r="9.52" fill="#ffffff" opacity=".38"/><circle cx="1208.59" cy="279.20" r="14.56" fill="hsl(264 84% 54%)" opacity=".24"/></g><g opacity="0.64"><circle cx="1167.91" cy="304.66" r="21.00" fill="hsl(61 64% 42%)"/><circle cx="1161.19" cy="297.31" r="7.14" fill="#ffffff" opacity=".38"/><circle cx="1171.69" cy="309.28" r="10.92" fill="hsl(43 92% 58%)" opacity=".24"/></g><g opacity="0.71"><circle cx="321.47" cy="456.00" r="61.00" fill="hsl(40 71% 54%)"/><circle cx="301.95" cy="434.65" r="20.74" fill="#ffffff" opacity=".38"/><circle cx="332.45" cy="469.42" r="31.72" fill="hsl(309 80% 59%)" opacity=".24"/></g><g opacity="0.57"><circle cx="112.09" cy="157.84" r="54.00" fill="hsl(45 88% 52%)"/><circle cx="94.81" cy="138.94" r="18.36" fill="#ffffff" opacity=".38"/><circle cx="121.81" cy="169.72" r="28.08" fill="hsl(172 89% 52%)" opacity=".24"/></g><g opacity="0.50"><circle cx="143.28" cy="521.51" r="33.00" fill="hsl(127 67% 36%)"/><circle cx="132.72" cy="509.96" r="11.22" fill="#ffffff" opacity=".38"/><circle cx="149.22" cy="528.77" r="17.16" fill="hsl(150 67% 40%)" opacity=".24"/></g><g opacity="0.70"><circle cx="526.40" cy="605.08" r="26.00" fill="hsl(216 58% 47%)"/><circle cx="518.08" cy="595.98" r="8.84" fill="#ffffff" opacity=".38"/><circle cx="531.08" cy="610.80" r="13.52" fill="hsl(199 75% 46%)" opacity=".24"/></g><g opacity="0.61"><circle cx="1087.72" cy="571.20" r="12.00" fill="hsl(134 60% 49%)"/><circle cx="1083.88" cy="567.00" r="4.08" fill="#ffffff" opacity=".38"/><circle cx="1089.88" cy="573.84" r="6.24" fill="hsl(342 77% 39%)" opacity=".24"/></g><g opacity="0.52"><circle cx="887.25" cy="591.53" r="31.00" fill="hsl(227 87% 40%)"/><circle cx="877.33" cy="580.68" r="10.54" fill="#ffffff" opacity=".38"/><circle cx="892.83" cy="598.35" r="16.12" fill="hsl(57 75% 49%)" opacity=".24"/></g><g opacity="0.49"><circle cx="985.25" cy="297.88" r="40.00" fill="hsl(278 81% 54%)"/><circle cx="972.45" cy="283.88" r="13.60" fill="#ffffff" opacity=".38"/><circle cx="992.45" cy="306.68" r="20.80" fill="hsl(74 58% 46%)" opacity=".24"/></g><g opacity="0.88"><circle cx="107.64" cy="324.99" r="41.00" fill="hsl(270 68% 40%)"/><circle cx="94.52" cy="310.64" r="13.94" fill="#ffffff" opacity=".38"/><circle cx="115.02" cy="334.01" r="21.32" fill="hsl(36 69% 40%)" opacity=".24"/></g><g opacity="0.69"><circle cx="374.93" cy="417.60" r="56.00" fill="hsl(323 56% 40%)"/><circle cx="357.01" cy="398.00" r="19.04" fill="#ffffff" opacity=".38"/><circle cx="385.01" cy="429.92" r="29.12" fill="hsl(74 85% 55%)" opacity=".24"/></g><g opacity="0.57"><circle cx="824.88" cy="627.67" r="23.00" fill="hsl(252 76% 43%)"/><circle cx="817.52" cy="619.62" r="7.82" fill="#ffffff" opacity=".38"/><circle cx="829.02" cy="632.73" r="11.96" fill="hsl(113 58% 38%)" opacity=".24"/></g><g opacity="0.48"><circle cx="1069.90" cy="193.98" r="48.00" fill="hsl(130 87% 47%)"/><circle cx="1054.54" cy="177.18" r="16.32" fill="#ffffff" opacity=".38"/><circle cx="1078.54" cy="204.54" r="24.96" fill="hsl(225 56% 58%)" opacity=".24"/></g><g opacity="0.66"><circle cx="161.10" cy="557.65" r="40.00" fill="hsl(288 55% 38%)"/><circle cx="148.30" cy="543.65" r="13.60" fill="#ffffff" opacity=".38"/><circle cx="168.30" cy="566.45" r="20.80" fill="hsl(27 89% 56%)" opacity=".24"/></g><g opacity="0.86"><circle cx="472.94" cy="200.75" r="18.00" fill="hsl(329 72% 54%)"/><circle cx="467.18" cy="194.45" r="6.12" fill="#ffffff" opacity=".38"/><circle cx="476.18" cy="204.71" r="9.36" fill="hsl(346 89% 40%)" opacity=".24"/></g><g opacity="0.73"><circle cx="851.61" cy="78.78" r="47.00" fill="hsl(262 73% 41%)"/><circle cx="836.57" cy="62.33" r="15.98" fill="#ffffff" opacity=".38"/><circle cx="860.07" cy="89.12" r="24.44" fill="hsl(120 66% 62%)" opacity=".24"/></g><g opacity="0.69"><circle cx="432.85" cy="598.31" r="16.00" fill="hsl(211 66% 49%)"/><circle cx="427.73" cy="592.71" r="5.44" fill="#ffffff" opacity=".38"/><circle cx="435.73" cy="601.83" r="8.32" fill="hsl(37 88% 36%)" opacity=".24"/></g><g opacity="0.55"><circle cx="361.57" cy="598.31" r="47.00" fill="hsl(66 66% 41%)"/><circle cx="346.53" cy="581.86" r="15.98" fill="#ffffff" opacity=".38"/><circle cx="370.03" cy="608.65" r="24.44" fill="hsl(130 61% 36%)" opacity=".24"/></g><g opacity="0.59"><circle cx="789.24" cy="530.54" r="63.00" fill="hsl(222 83% 57%)"/><circle cx="769.08" cy="508.49" r="21.42" fill="#ffffff" opacity=".38"/><circle cx="800.58" cy="544.40" r="32.76" fill="hsl(45 63% 38%)" opacity=".24"/></g><g opacity="0.48"><circle cx="423.94" cy="609.60" r="65.00" fill="hsl(193 60% 36%)"/><circle cx="403.14" cy="586.85" r="22.10" fill="#ffffff" opacity=".38"/><circle cx="435.64" cy="623.90" r="33.80" fill="hsl(81 90% 63%)" opacity=".24"/></g><g opacity="0.86"><circle cx="593.22" cy="467.29" r="35.00" fill="hsl(16 70% 60%)"/><circle cx="582.02" cy="455.04" r="11.90" fill="#ffffff" opacity=".38"/><circle cx="599.52" cy="474.99" r="18.20" fill="hsl(31 90% 49%)" opacity=".24"/></g><g opacity="0.52"><circle cx="976.35" cy="440.19" r="55.00" fill="hsl(102 83% 48%)"/><circle cx="958.75" cy="420.94" r="18.70" fill="#ffffff" opacity=".38"/><circle cx="986.25" cy="452.29" r="28.60" fill="hsl(153 56% 37%)" opacity=".24"/></g><g opacity="0.80"><circle cx="682.32" cy="577.98" r="16.00" fill="hsl(339 77% 44%)"/><circle cx="677.20" cy="572.38" r="5.44" fill="#ffffff" opacity=".38"/><circle cx="685.20" cy="581.50" r="8.32" fill="hsl(23 70% 37%)" opacity=".24"/></g><g opacity="0.87"><circle cx="1145.63" cy="584.75" r="49.00" fill="hsl(197 77% 42%)"/><circle cx="1129.95" cy="567.60" r="16.66" fill="#ffffff" opacity=".38"/><circle cx="1154.45" cy="595.53" r="25.48" fill="hsl(199 68% 42%)" opacity=".24"/></g><g opacity="0.85"><circle cx="1011.98" cy="205.27" r="54.00" fill="hsl(174 92% 61%)"/><circle cx="994.70" cy="186.37" r="18.36" fill="#ffffff" opacity=".38"/><circle cx="1021.70" cy="217.15" r="28.08" fill="hsl(30 79% 38%)" opacity=".24"/></g><g opacity="0.87"><circle cx="1159.00" cy="638.96" r="58.00" fill="hsl(188 56% 51%)"/><circle cx="1140.44" cy="618.66" r="19.72" fill="#ffffff" opacity=".38"/><circle cx="1169.44" cy="651.72" r="30.16" fill="hsl(329 67% 61%)" opacity=".24"/></g><g opacity="0.73"><circle cx="294.75" cy="643.48" r="18.00" fill="hsl(218 59% 48%)"/><circle cx="288.99" cy="637.18" r="6.12" fill="#ffffff" opacity=".38"/><circle cx="297.99" cy="647.44" r="9.36" fill="hsl(100 75% 57%)" opacity=".24"/></g><g opacity="0.56"><circle cx="602.13" cy="268.52" r="43.00" fill="hsl(165 90% 50%)"/><circle cx="588.37" cy="253.47" r="14.62" fill="#ffffff" opacity=".38"/><circle cx="609.87" cy="277.98" r="22.36" fill="hsl(172 59% 49%)" opacity=".24"/></g><g opacity="0.58"><circle cx="134.37" cy="498.92" r="41.00" fill="hsl(314 74% 39%)"/><circle cx="121.25" cy="484.57" r="13.94" fill="#ffffff" opacity=".38"/><circle cx="141.75" cy="507.94" r="21.32" fill="hsl(156 82% 50%)" opacity=".24"/></g><g opacity="0.82"><circle cx="441.76" cy="239.15" r="47.00" fill="hsl(270 61% 61%)"/><circle cx="426.72" cy="222.70" r="15.98" fill="#ffffff" opacity=".38"/><circle cx="450.22" cy="249.49" r="24.44" fill="hsl(225 86% 63%)" opacity=".24"/></g><g opacity="0.72"><circle cx="588.77" cy="503.44" r="14.00" fill="hsl(297 82% 41%)"/><circle cx="584.29" cy="498.54" r="4.76" fill="#ffffff" opacity=".38"/><circle cx="591.29" cy="506.52" r="7.28" fill="hsl(335 63% 38%)" opacity=".24"/></g><g opacity="0.85"><circle cx="686.78" cy="602.82" r="26.00" fill="hsl(144 68% 61%)"/><circle cx="678.46" cy="593.72" r="8.84" fill="#ffffff" opacity=".38"/><circle cx="691.46" cy="608.54" r="13.52" fill="hsl(78 89% 55%)" opacity=".24"/></g><g opacity="0.64"><circle cx="143.28" cy="358.87" r="44.00" fill="hsl(268 55% 37%)"/><circle cx="129.20" cy="343.47" r="14.96" fill="#ffffff" opacity=".38"/><circle cx="151.20" cy="368.55" r="22.88" fill="hsl(126 92% 50%)" opacity=".24"/></g><g opacity="0.55"><circle cx="922.89" cy="390.49" r="41.00" fill="hsl(264 90% 53%)"/><circle cx="909.77" cy="376.14" r="13.94" fill="#ffffff" opacity=".38"/><circle cx="930.27" cy="399.51" r="21.32" fill="hsl(266 75% 38%)" opacity=".24"/></g><g opacity="0.70"><circle cx="780.33" cy="611.86" r="16.00" fill="hsl(100 65% 57%)"/><circle cx="775.21" cy="606.26" r="5.44" fill="#ffffff" opacity=".38"/><circle cx="783.21" cy="615.38" r="8.32" fill="hsl(19 85% 41%)" opacity=".24"/></g><g opacity="0.79"><circle cx="717.96" cy="270.78" r="17.00" fill="hsl(356 69% 43%)"/><circle cx="712.52" cy="264.83" r="5.78" fill="#ffffff" opacity=".38"/><circle cx="721.02" cy="274.52" r="8.84" fill="hsl(204 74% 56%)" opacity=".24"/></g><g opacity="0.85"><circle cx="1132.27" cy="503.44" r="21.00" fill="hsl(262 84% 47%)"/><circle cx="1125.55" cy="496.09" r="7.14" fill="#ffffff" opacity=".38"/><circle cx="1136.05" cy="508.06" r="10.92" fill="hsl(67 55% 57%)" opacity=".24"/></g><g opacity="0.63"><circle cx="882.79" cy="589.27" r="49.00" fill="hsl(103 58% 56%)"/><circle cx="867.11" cy="572.12" r="16.66" fill="#ffffff" opacity=".38"/><circle cx="891.61" cy="600.05" r="25.48" fill="hsl(61 59% 39%)" opacity=".24"/></g><g opacity="0.81"><circle cx="1132.27" cy="593.79" r="13.00" fill="hsl(35 87% 54%)"/><circle cx="1128.11" cy="589.24" r="4.42" fill="#ffffff" opacity=".38"/><circle cx="1134.61" cy="596.65" r="6.76" fill="hsl(76 59% 51%)" opacity=".24"/></g><g opacity="0.67"><circle cx="989.71" cy="257.22" r="42.00" fill="hsl(153 71% 41%)"/><circle cx="976.27" cy="242.52" r="14.28" fill="#ffffff" opacity=".38"/><circle cx="997.27" cy="266.46" r="21.84" fill="hsl(340 72% 41%)" opacity=".24"/></g><g opacity="0.50"><circle cx="1141.18" cy="245.93" r="33.00" fill="hsl(249 59% 36%)"/><circle cx="1130.62" cy="234.38" r="11.22" fill="#ffffff" opacity=".38"/><circle cx="1147.12" cy="253.19" r="17.16" fill="hsl(108 56% 42%)" opacity=".24"/></g><g opacity="0.53"><circle cx="838.24" cy="453.74" r="43.00" fill="hsl(49 87% 63%)"/><circle cx="824.48" cy="438.69" r="14.62" fill="#ffffff" opacity=".38"/><circle cx="845.98" cy="463.20" r="22.36" fill="hsl(225 89% 37%)" opacity=".24"/></g><g opacity="0.58"><circle cx="624.41" cy="268.52" r="17.00" fill="hsl(73 80% 44%)"/><circle cx="618.97" cy="262.57" r="5.78" fill="#ffffff" opacity=".38"/><circle cx="627.47" cy="272.26" r="8.84" fill="hsl(4 82% 46%)" opacity=".24"/></g><g opacity="0.77"><circle cx="606.59" cy="616.38" r="30.00" fill="hsl(287 86% 60%)"/><circle cx="596.99" cy="605.88" r="10.20" fill="#ffffff" opacity=".38"/><circle cx="611.99" cy="622.98" r="15.60" fill="hsl(161 77% 47%)" opacity=".24"/></g><g opacity="0.83"><circle cx="152.19" cy="96.85" r="29.00" fill="hsl(299 92% 57%)"/><circle cx="142.91" cy="86.70" r="9.86" fill="#ffffff" opacity=".38"/><circle cx="157.41" cy="103.23" r="15.08" fill="hsl(192 80% 47%)" opacity=".24"/></g><g opacity="0.61"><circle cx="570.95" cy="417.60" r="63.00" fill="hsl(303 88% 37%)"/><circle cx="550.79" cy="395.55" r="21.42" fill="#ffffff" opacity=".38"/><circle cx="582.29" cy="431.46" r="32.76" fill="hsl(158 55% 37%)" opacity=".24"/></g><g opacity="0.71"><circle cx="1060.99" cy="537.32" r="47.00" fill="hsl(324 61% 43%)"/><circle cx="1045.95" cy="520.87" r="15.98" fill="#ffffff" opacity=".38"/><circle cx="1069.45" cy="547.66" r="24.44" fill="hsl(6 67% 41%)" opacity=".24"/></g><g opacity="0.64"><circle cx="134.37" cy="437.93" r="38.00" fill="hsl(202 79% 37%)"/><circle cx="122.21" cy="424.63" r="12.92" fill="#ffffff" opacity=".38"/><circle cx="141.21" cy="446.29" r="19.76" fill="hsl(328 77% 52%)" opacity=".24"/></g><g opacity="0.51"><circle cx="1141.18" cy="169.13" r="16.00" fill="hsl(327 79% 46%)"/><circle cx="1136.06" cy="163.53" r="5.44" fill="#ffffff" opacity=".38"/><circle cx="1144.06" cy="172.65" r="8.32" fill="hsl(55 57% 55%)" opacity=".24"/></g><g opacity="0.70"><circle cx="468.49" cy="462.78" r="29.00" fill="hsl(331 85% 48%)"/><circle cx="459.21" cy="452.63" r="9.86" fill="#ffffff" opacity=".38"/><circle cx="473.71" cy="469.16" r="15.08" fill="hsl(2 63% 43%)" opacity=".24"/></g><g opacity="0.52"><circle cx="1172.36" cy="392.75" r="45.00" fill="hsl(185 77% 62%)"/><circle cx="1157.96" cy="377.00" r="15.30" fill="#ffffff" opacity=".38"/><circle cx="1180.46" cy="402.65" r="23.40" fill="hsl(244 82% 41%)" opacity=".24"/></g><g opacity="0.74"><circle cx="143.28" cy="148.80" r="31.00" fill="hsl(86 72% 37%)"/><circle cx="133.36" cy="137.95" r="10.54" fill="#ffffff" opacity=".38"/><circle cx="148.86" cy="155.62" r="16.12" fill="hsl(69 66% 50%)" opacity=".24"/></g><g opacity="0.67"><circle cx="1034.26" cy="467.29" r="12.00" fill="hsl(62 65% 56%)"/><circle cx="1030.42" cy="463.09" r="4.08" fill="#ffffff" opacity=".38"/><circle cx="1036.42" cy="469.93" r="6.24" fill="hsl(249 80% 59%)" opacity=".24"/></g><g opacity="0.60"><circle cx="771.42" cy="182.68" r="59.00" fill="hsl(343 65% 40%)"/><circle cx="752.54" cy="162.03" r="20.06" fill="#ffffff" opacity=".38"/><circle cx="782.04" cy="195.66" r="30.68" fill="hsl(312 58% 59%)" opacity=".24"/></g><g opacity="0.75"><circle cx="633.32" cy="415.34" r="24.00" fill="hsl(11 65% 52%)"/><circle cx="625.64" cy="406.94" r="8.16" fill="#ffffff" opacity=".38"/><circle cx="637.64" cy="420.62" r="12.48" fill="hsl(37 68% 53%)" opacity=".24"/></g><g opacity="0.61"><circle cx="196.74" cy="401.79" r="28.00" fill="hsl(352 79% 47%)"/><circle cx="187.78" cy="391.99" r="9.52" fill="#ffffff" opacity=".38"/><circle cx="201.78" cy="407.95" r="14.56" fill="hsl(305 78% 53%)" opacity=".24"/></g><g opacity="0.84"><circle cx="401.66" cy="291.11" r="53.00" fill="hsl(35 91% 45%)"/><circle cx="384.70" cy="272.56" r="18.02" fill="#ffffff" opacity=".38"/><circle cx="411.20" cy="302.77" r="27.56" fill="hsl(79 65% 58%)" opacity=".24"/></g><g opacity="0.88"><circle cx="1038.71" cy="467.29" r="62.00" fill="hsl(282 63% 39%)"/><circle cx="1018.87" cy="445.59" r="21.08" fill="#ffffff" opacity=".38"/><circle cx="1049.87" cy="480.93" r="32.24" fill="hsl(146 70% 51%)" opacity=".24"/></g><g opacity="0.57"><circle cx="125.46" cy="404.05" r="28.00" fill="hsl(327 87% 50%)"/><circle cx="116.50" cy="394.25" r="9.52" fill="#ffffff" opacity=".38"/><circle cx="130.50" cy="410.21" r="14.56" fill="hsl(290 55% 63%)" opacity=".24"/></g><g opacity="0.57"><circle cx="504.13" cy="568.94" r="13.00" fill="hsl(175 62% 62%)"/><circle cx="499.97" cy="564.39" r="4.42" fill="#ffffff" opacity=".38"/><circle cx="506.47" cy="571.80" r="6.76" fill="hsl(332 82% 54%)" opacity=".24"/></g><g opacity="0.80"><circle cx="468.49" cy="114.92" r="41.00" fill="hsl(278 66% 36%)"/><circle cx="455.37" cy="100.57" r="13.94" fill="#ffffff" opacity=".38"/><circle cx="475.87" cy="123.94" r="21.32" fill="hsl(139 85% 39%)" opacity=".24"/></g><g opacity="0.80"><circle cx="570.95" cy="132.99" r="64.00" fill="hsl(46 87% 53%)"/><circle cx="550.47" cy="110.59" r="21.76" fill="#ffffff" opacity=".38"/><circle cx="582.47" cy="147.07" r="33.28" fill="hsl(158 85% 40%)" opacity=".24"/></g><g opacity="0.88"><circle cx="174.46" cy="236.89" r="36.00" fill="hsl(314 86% 54%)"/><circle cx="162.94" cy="224.29" r="12.24" fill="#ffffff" opacity=".38"/><circle cx="180.94" cy="244.81" r="18.72" fill="hsl(302 70% 49%)" opacity=".24"/></g></g>
  <text x="28" y="692" font-family="monospace" font-size="18" fill="#dbeafe">UVIP-QSOM-SPHERE e87ee14c3dd3a59510b785a2</text>
</svg>
